<?xml version="1.0" encoding="UTF-8"?>
<svg xmlns="http://www.w3.org/2000/svg" viewBox="0 0 2194.18 1767.13">
  <defs>
    <style>
      .cls-1 {
        fill: #408734;
      }

      .cls-2, .cls-3 {
        fill: #d32f16;
      }

      .cls-4 {
        fill: #bccee2;
      }

      .cls-5 {
        fill: #010101;
      }

      .cls-6 {
        fill: #726b45;
      }

      .cls-7 {
        fill: #b21d1e;
      }

      .cls-8 {
        fill: #459635;
      }

      .cls-9 {
        fill: #8c8764;
      }

      .cls-10 {
        fill: #a09d8a;
      }

      .cls-11, .cls-12, .cls-13, .cls-14, .cls-15, .cls-16, .cls-17, .cls-18, .cls-3, .cls-19, .cls-20, .cls-21, .cls-22 {
        stroke: #1d1d1b;
      }

      .cls-11, .cls-23, .cls-14, .cls-15, .cls-19 {
        fill: #1d1d1b;
      }

      .cls-11, .cls-14, .cls-15, .cls-24, .cls-25, .cls-26, .cls-27, .cls-17, .cls-18, .cls-28, .cls-19, .cls-29, .cls-30, .cls-31 {
        stroke-miterlimit: 10;
      }

      .cls-11, .cls-26, .cls-27, .cls-3, .cls-28, .cls-19, .cls-20, .cls-21, .cls-22 {
        stroke-linecap: round;
      }

      .cls-11, .cls-28 {
        stroke-width: 6px;
      }

      .cls-32 {
        fill: #8c8553;
      }

      .cls-33 {
        fill: #d86c64;
      }

      .cls-12, .cls-13, .cls-16, .cls-26, .cls-27, .cls-17, .cls-18, .cls-28, .cls-29, .cls-30, .cls-31, .cls-20, .cls-21, .cls-22 {
        fill: none;
      }

      .cls-12, .cls-13, .cls-16, .cls-3, .cls-20, .cls-21, .cls-22 {
        stroke-linejoin: round;
      }

      .cls-12, .cls-17, .cls-21 {
        stroke-width: 25px;
      }

      .cls-34 {
        fill: #ebe8e8;
      }

      .cls-13, .cls-18, .cls-19, .cls-22 {
        stroke-width: 15px;
      }

      .cls-14 {
        stroke-width: 9px;
      }

      .cls-15, .cls-16, .cls-26, .cls-3, .cls-29 {
        stroke-width: 10px;
      }

      .cls-35 {
        fill: #c11c1c;
      }

      .cls-36 {
        fill: #bababa;
      }

      .cls-37, .cls-24 {
        fill: #c08629;
      }

      .cls-24 {
        stroke: #c08629;
      }

      .cls-24, .cls-30 {
        stroke-width: 8px;
      }

      .cls-38 {
        fill: #918756;
      }

      .cls-39 {
        fill: #9fb1c0;
      }

      .cls-40 {
        fill: #fff;
      }

      .cls-25 {
        fill: #ead8b9;
        stroke: #ead8b9;
        stroke-width: 2px;
      }

      .cls-41 {
        fill: #757052;
      }

      .cls-42 {
        fill: #c2443e;
      }

      .cls-26, .cls-27, .cls-28, .cls-29, .cls-30, .cls-31 {
        stroke: #010101;
      }

      .cls-43 {
        fill: #de5041;
      }

      .cls-27 {
        stroke-width: 7px;
      }

      .cls-44 {
        fill: #f8bfb2;
      }

      .cls-45 {
        fill: #cc1717;
      }

      .cls-46 {
        fill: #3c7d32;
      }

      .cls-47 {
        fill: #a89e63;
      }

      .cls-48 {
        fill: #db9e2d;
      }

      .cls-49 {
        fill: #e2e2e1;
      }

      .cls-50 {
        fill: #32692d;
      }

      .cls-51 {
        fill: #418733;
      }

      .cls-31 {
        stroke-width: 12px;
      }

      .cls-52 {
        fill: #8d8b79;
      }

      .cls-53 {
        fill: #7c7866;
      }

      .cls-54 {
        fill: #f1866a;
      }

      .cls-55 {
        fill: #fdfdfd;
      }

      .cls-20 {
        stroke-width: 20px;
      }
    </style>
  </defs>
  <g id="Farve">
    <polygon class="cls-48" points="69.81 579.84 82.22 551.72 377.87 740.79 371.08 768.68 69.81 579.84"/>
    <path class="cls-54" d="M1911.46,562.66s48.82,11.98,26.11,164.56l85.47,58.86s73.55,74.6-13.05,175.74l15.77,91.78-29.48,111.26-152-169.18-12.69,54.56-27.21,25.56-20.11,93.48-21.27,21.06,81.27,91.07-35.93,37.23-74.9,25.8-79.26,5.96-52.5,55.6-125.51,46.93-62.14,2.43,13.65,42.21,39.57,132.49-12.58,103.68-75.03,24.06-55.51-20.73-12.04-156.5-51.62-103.24-80.96-96.79-60.02-47.83-79.24,35.08-101.77-6.57-144.71-130.43-62.18-27.21-105.25,2.95-70.59-43.58-32.77-60.59-80.99,13.2-76.49-33.66-47.24-97.83,14.71-48.15-49.49-84.28-9.1-79,5.08-49.08,92.29,49.08,12.26-33.4-103.28-59.29,33.44-45.68-28.7-75.76,34.11-130.67,73.15-68.46,71.1-29.49,24.41-53.67,33.46-24.53,19.15,67.27,46.55,70.27,56.56,38.62,57.93-55.1,70.78-30.75,54.7-5.07,22.15-86,52.09-48.59-44.23-81.55,49.42-9.34,80.74,28.16s132.89-111.93,308.23,8.82c0,0,159.35,5.51,218.91,71.68,0,0,78.21-8.73,108.67,13.78,30.46,22.51,72.86,37.92,81.96,56.12,9.11,18.2,18.9,49.36,18.9,49.36l-56.77,3.07,85.45,97.69-9.59,78.9-20.41,48.46,39.52,11.04"/>
    <polygon class="cls-40" points="69.75 598.08 64.29 615.42 105.84 618.98 69.75 594.07 69.75 598.08"/>
    <polygon class="cls-40" points="102.89 627.59 78.31 668.81 140.19 681.08 157.12 651.13 136.37 630.98 102.89 627.59"/>
    <polygon class="cls-40" points="40.32 668.81 28.31 712.8 60.79 712.8 71.45 675.24 40.32 668.81"/>
    <polygon class="cls-40" points="140.19 681.08 122.41 723.58 184.59 727.22 201.73 693.54 140.19 681.08"/>
    <polygon class="cls-40" points="60.79 727.22 60.79 772.13 107.91 772.13 117.71 727.22 60.79 721.11 60.79 727.22"/>
    <polygon class="cls-40" points="19.86 777.33 30.45 826.48 69.75 823.96 52.33 775.05 19.86 777.33"/>
    <polygon class="cls-40" points="215.59 901.3 218.9 923.74 217.11 960.02 244.55 972.35 250.75 960.02 257.38 916.16 219.22 897.98 215.59 901.3"/>
    <polygon class="cls-40" points="188.12 1046.7 160.58 1104.4 189.4 1123.57 217.11 1064.17 188.12 1046.7"/>
    <polygon class="cls-43" points="1494.12 1286.9 1565.14 1321.61 1654.2 1350.42 1722.13 1350.42 1808.36 1318.66 1861.77 1232.72 1715.9 1221.93 1654.2 1236.47 1578.85 1224.42 1494.12 1286.9"/>
    <polygon class="cls-43" points="1119.52 1332.74 1195.85 1400.08 1254.59 1462.55 1296.21 1548.79 1324.03 1666.13 1324.15 1737.1 1379.66 1757.83 1454.69 1733.78 1467.28 1630.09 1414.05 1455.39 1499.77 1455.39 1606.51 1393.12 1654.2 1350.42 1565.14 1321.61 1494.12 1286.9 1379.26 1334.72 1251.43 1344.46 1148.7 1318.66 1119.52 1332.74"/>
    <polyline class="cls-43" points="1852.65 531.34 1850.95 512.97 1839.15 464.9 1810.06 451.37 1752.91 392.43 1687.92 341.34 1724.23 339.38 1705.33 290.02 1641.52 235.72 1573.33 212.44 1514.7 220.13 1565.99 331.6 1565.99 398.85 1648.48 434.09 1670.85 498.31 1700.85 568.27 1784.61 588.89 1833.09 634.36 1884.16 688.65 1887.71 782.54 1868.53 872.83 1840.86 948.86 1859.15 1010.01 1996.29 1164.86 2013.75 1112.09 2026.77 1023.16 2009.99 961.82 2054.51 894.24 2034.9 802.06 1992.92 734.48 1970.52 653.11 1931.37 617.94 1923.21 570.7"/>
    <path class="cls-43" d="M1200.36,1187.8l-18.43,64.4-33.23,66.46,69.09,17.35h134.26l142.06-49.11,84.73-62.48,75.35,12.04,61.71-14.53,47.11-31.57,41.65-89.68,4.62-29.47-33.92,3.11-70.17-21.14s-57.02,88.73-165.87,28.54l-39.55,57.23-79.75,48.85-98.54,13.44-121.12-25.91v12.47Z"/>
    <path class="cls-43" d="M1730.98,1060.95s90.29-5.4,109.88-85.65c19.59-80.24,3.43,42.82,3.43,42.82l-12.69,32.13-27.21,25.56h-53.81l-19.61-14.86Z"/>
    <path class="cls-43" d="M1798.9,883.91s133.88-235.99-88.19-302.31l-9.87-13.34,52.06,6.06,73.07,36.59,46.25,66.74,16.87,34.46v123.54l-44.8,103.77-45.38-55.52Z"/>
    <path class="cls-43" d="M1082.2,1053.18s123.6,13.32,171.56-77.88c29.52-56.14,46.82-81.99,55.77-93.57,3.91-5.06,4.88-7.82,10.86-15.77,27.96-37.13,40.13-40.91,158.61-35.77,155.09,6.74,191.32-15.72,191.32-15.72,0,0,80.68-20.55,73.88-110.21l.41,49.58-24.98,62.08-61.89,39.32-91.74,18.17-123.78,2.22-90.15,30.66-38.72,53.8-51.7,65.53-38.59,60.66-104.85,17.24-26.94-3.1-9.05-47.25Z"/>
    <path class="cls-43" d="M365.08,1062.19c30.94,16.06,91.19,31.6,153.51,10.43,3.65-1.24,7.69-.15,10.19,2.79,18.85,22.19,99.47,110.75,174.67,97.72,77.61-13.45,120.07,10.36,128.14,18.48,6.44,6.49,7.64,7.67,12.29,12.72,18.17,19.74,36.94,53.66,73.02,80.65,15.44,11.55,30.49,20.33,44.06,27.03.43.21.87.39,1.33.53,16,5.1,60.87,24.6,104.59-.22,38.67-21.95,96.84-38.32,120.88-130.83,2.41-9.27,15.5-9.43,18.09-.21l.18.65c.31,1.09.33,2.24.08,3.34l-14.56,62.81c-.18.77-.45,1.52-.82,2.22l-28.32,54.28c-.53,1.02-1.25,1.94-2.12,2.7l-41.31,36.35c-.48.42-1.01.8-1.56,1.11l-60.42,34.31c-1.41.8-3,1.22-4.63,1.22h-68.51c-1.34,0-2.66-.29-3.88-.84l-71.27-32.39c-1.25-.57-2.36-1.41-3.25-2.45l-61.98-72.73c-.33-.39-.69-.75-1.08-1.07l-50.32-42.61c-1.23-1.04-2.7-1.74-4.28-2.05l-57.43-11.09c-.75-.14-1.51-.2-2.27-.16l-60.54,3.23c-.84.04-1.69-.02-2.51-.21l-84.26-18.52c-2.66-.58-4.94-2.3-6.23-4.7l-42.24-78.17c-1.9-3.51-5.81-5.43-9.75-4.79l-71.67,11.68c-1.79.29-3.62.06-5.28-.67l-71.26-31.36c-1.75-.77-3.22-2.06-4.22-3.69l-6.86-11.21c-4.97-8.12-6.65-18.67,1.8-14.28Z"/>
    <path class="cls-43" d="M752.58,1041.17s33.39,5.63,50.12-21.72c0,0,57.75,128.71,139.8,129.51s108.95-59.53,108.95-59.53c0,0,11.71-24.13,8.49-69.98-3.22-45.85,22.25,33.73,22.25,33.73v53.95l-27.08,57.92-59.53,16.89-67.57,12.65-94.92-52.07-33.79-81.36h-40.22l-6.51-19.99Z"/>
    <path class="cls-43" d="M1494.47,219s59.85,117.05,12.67,173.44c-47.17,56.39,9.34,0,9.34,0l61.76,11.66-20.12-101.36-60.37-98-3.29,14.27Z"/>
    <path class="cls-43" d="M375.98,815.45s81.25,190.74,284.18,86.89l4.31,30.95-56.86,32.29-71.44,9.71-65.38-16.98-67.8-42.16-18.93-39.79-24.91,25.97-26.15,33.6-49.49-84.28v-16.76s44.74,42.2,92.47,9.51v-28.96Z"/>
    <path class="cls-33" d="M1451.4,1577.97s-73.56-86.95-179.98-80.55l24.79,51.36,21.65,68.99,6.3,119.33,55.51,20.73,75.03-24.06,12.58-103.68-15.88-52.12Z"/>
    <path class="cls-44" d="M1372.39,973.63c-4.82,2.06-10.35-1.78-7.59-5.27,8.07-10.19,22.51-23.96,46.91-34.08,23.17-9.61,45.83-12,61.68-12.23,5.62-.08,7.75,5.2,2.93,7.26-34.64,14.77-69.28,29.54-103.92,44.31Z"/>
    <path class="cls-44" d="M915.13,916.13c53.01-83.58,94.38-67.15,94.38-67.15-34.26-65.6-103.07,53.37-103.07,53.37l8.69,13.78Z"/>
    <path class="cls-44" d="M928.73,340.73c-9.42-10.34-12.05-23.74-7.11-35.12,9.56-22.04,34.61-59.18,96.87-70.24,60.02-10.66,100.75,2.28,121.34,12.17,2.86,1.37,1.48,4.93-1.64,4.24-23.03-5.16-56.92-12.1-90.76,3.45-35.41,16.27-31.86,12.39-66.08,39.3-23.58,18.54-40.9,59.05-52.6,46.2Z"/>
    <path class="cls-44" d="M693.48,422.4c-19.27,11.32-71.52,61.83-23.83,138.71.78,1.26,2.72.46,2.38-.98-5-20.7-16.53-86.35,23.42-135.55.91-1.12-.73-2.91-1.97-2.18Z"/>
    <path class="cls-44" d="M1404.35,206.11c-5.07-25.94-130.42-45.58-139.45-19.06-1.22,3.6,4.77,10.83,5.9,11.78,9.47,8,80.89-28.92,131.44,9.32,1.15.87,2.39-.63,2.11-2.04Z"/>
    <path class="cls-44" d="M333.77,528.18c-2.44,5-9.53,5.77-9.74,1.05-.61-13.77,1.39-34.85,13.91-59.92,11.89-23.81,28.39-41.47,40.94-52.67,4.45-3.97,9.83-1.22,7.39,3.79-17.5,35.92-35,71.84-52.49,107.76Z"/>
    <path class="cls-44" d="M494.39,689.6c-1.28,36.26,22.42,151.86,169.31,153.49,2.4.03,1.55-32.65-.72-33.43-32.72-11.18-131.26-23.25-163.88-120.86-.74-2.22-4.62-1.54-4.71.8Z"/>
    <path class="cls-44" d="M1636.92,649.33c23.66-13.55,29.42-135.25,3.09-142.06-3.68-.95-11.47,2.72-11.3,6.77.51,12.18,33.51,76.24,2.18,129.11-2.35,3.96,2.03,8.48,6.03,6.19Z"/>
    <path class="cls-44" d="M1053.97,1181.64c-38.62,37.05-122.97,30.22-122.97,30.22,14.77,3.7,32.69,6.99,53.2,8.34,14.45.95,27.65.76,39.29,0,1.53.06,15.75.41,25.24-10.83,10.26-12.14,5.6-26.7,5.25-27.74Z"/>
    <path class="cls-42" d="M1971.16,1143.92s45.68-80.93,0-195.07c0,0,131.51-98.75-33.6-239.97l55.35,25.59,41.98,67.58,19.61,57.25-23.53,74.31-20.99,28.2,15.08,72.93-11.33,77.34-17.46,52.77-25.12-20.94Z"/>
    <path class="cls-42" d="M1699.01,406.86s-5.11-13.94-20.97-59.04c0,0-21.16-95.84-127.82-128.82-106.66-32.98-35.52,1.13-35.52,1.13l58.63-7.69,67.7,29.04,50.41,27.2,35.37,54.33-2.58,16.38,13.81,45.22-39.03,22.26Z"/>
    <path class="cls-42" d="M1163.3,1286.9c42.71,11.41,124.33,27.11,223.56,7.21,86.14-17.27,148.59-53.96,183.54-78.23l-64.5,62.33-53.72,40.45-88.12,17.35-135.16,4.1-80.2-21.45,14.6-31.76Z"/>
    <path class="cls-42" d="M1578.95,1212.99s170.3,31.87,214.12-122l4.48,31.37-34.54,68-47.11,31.57-85.13,10.79-51.82-19.73Z"/>
    <polygon class="cls-48" points="35.14 510.52 4.68 542.75 19.91 581.78 64.29 587.46 87.19 550.68 71.45 518.63 35.14 510.52"/>
    <path class="cls-37" d="M16.05,564.64c15.71,13.26,38.32,10.03,48.24-3.81,7.97-11.12,6.99-28.05-3.44-40.07,7.56,8.25,15.12,16.5,22.68,24.75l-13,38.31-27.58.4c-8.97-6.53-17.93-13.05-26.9-19.58Z"/>
    <circle class="cls-25" cx="41.04" cy="530.68" r="5.18"/>
    <polygon class="cls-49" points="500.01 225.47 515.15 273.26 526.83 315.41 549.9 338.2 549.9 369.89 558.81 394.07 575.3 409.79 620.54 423.42 672.92 423.42 714.75 424 767.73 378.48 841.93 356.24 877.96 296.46 938.21 235.93 942.6 164.63 910.51 96.97 844.31 51.34 745.4 23.47 628.64 31.84 558.81 92.39 522.55 150.73 500.01 225.47"/>
    <path class="cls-36" d="M729.96,373.39s308.05-62.64,114.35-322.05l77.86,51.89,28.84,82.28-4.06,54.25-35.69,29.83-50.41,55.26-37.76,48.54h-93.12"/>
    <path class="cls-36" d="M815.05,344.96s33.54-84.95,95.41-111.19,4.56,35.31,4.56,35.31l-76.21,87.15-23.76-11.28Z"/>
    <path class="cls-36" d="M700.21,408.22s14.19-9.08,35.19-32.92c21-23.84,0,40.02,0,40.02l-22.99,6.91-12.21-14.01Z"/>
    <path class="cls-36" d="M675.81,407.66s4.91-33.64,15.51-34.26c10.6-.63-12.39,47.04-12.39,47.04l-3.12-12.77Z"/>
    <path class="cls-36" d="M627.56,409.93s5.68-50.95,14.47-43.64-5.39,48.75-5.39,48.75l-9.08-5.11Z"/>
    <path class="cls-36" d="M580.73,394.07s17.6-36.88,21.29-31.09-10.64,33.93-10.64,33.93l-10.64-2.84Z"/>
    <polygon class="cls-36" points="723.59 137.9 765.3 97.46 756.96 89.74 785.67 67.2 775.18 56.4 795.55 40.04 812.53 49.61 792.77 78.01 776.72 97.76 770.86 115.98 723.59 137.9"/>
    <polygon class="cls-10" points="1557.49 459.54 1706.6 384.74 1716.66 369.04 1727.43 383.6 1749.58 389.82 1772.31 379.65 1778.15 362.36 1774.3 347.51 1761.94 332.35 1770.82 326.09 1784.89 320.51 1809.58 324.95 1830.18 350.85 1839.15 383.85 1829.59 421.09 1804.98 442.28 1781.41 444.86 1735.48 425.7 1721.38 411.48 1782.21 395.26 1804.98 402.06 1817.85 392.37 1820.52 377.03 1810.22 365.28 1794.97 362.36 1787.67 368.17 1781.41 377.05 1782.21 390.63 1713.79 412.63 1602.2 449.24 1557.49 459.54"/>
    <polygon class="cls-10" points="1774.3 387.31 1782.21 390.63 1784.89 402.06 1741.36 417.49 1713.22 406.86 1774.3 387.31"/>
    <polygon class="cls-55" points="1716.66 354.04 1724.23 339.38 1778.15 362.36 1774.3 375.22 1761.89 387.31 1740.79 390.03 1721.94 379.65 1716.66 354.04"/>
    <polygon class="cls-55" points="1777.69 388.73 1792.34 410.74 1818.47 412.15 1832.75 406.31 1840.67 389.77 1784.89 368.73 1777.69 388.73"/>
    <polygon class="cls-52" points="1734.62 333.01 1724.23 339.38 1731.95 346.59 1774.3 361.96 1777.6 355.68 1766.84 335.72 1753.18 329 1734.62 333.01"/>
    <polygon class="cls-52" points="1789.07 364.01 1803.78 362.95 1811.72 360.54 1830.15 368.17 1835.76 387.31 1787.67 368.17 1789.07 364.01"/>
    <polygon class="cls-9" points="1783.07 480.92 1783.07 449.24 1813.07 436.9 1831.02 415.54 1857.64 428.08 1883.27 434.54 1883.94 442.77 1903.38 449.55 1899.33 461.65 1906.88 464.9 1908.65 480.92 1880.97 483.8 1873.66 493.55 1876.02 501.12 1917.66 537.1 1915.23 553.57 1905.5 571.58 1880.97 577.82 1857.64 564.22 1826.54 532.66 1820.52 541.38 1807.78 509.02 1800.97 507.67 1790.61 477.59 1783.07 480.92"/>
    <polygon class="cls-32" points="1886.65 583.09 1892.25 606.43 1913.41 605.33 1938.81 591.87 1917.66 557.56 1886.65 575.59 1886.65 583.09"/>
    <polygon class="cls-47" points="1892.28 654.58 1917.66 658.07 1947.75 647.6 1966.66 632.49 1938.81 591.87 1913.41 605.33 1892.25 606.43 1892.28 654.58"/>
    <polygon class="cls-32" points="1889.09 712.12 1892.28 654.58 1935.77 657.71 1966.66 632.49 1994.75 701.57 1972.69 715.52 1937.57 719.24 1889.09 712.12"/>
    <polygon class="cls-47" points="1889.09 766.35 1893.9 712.83 1955 719.24 1994.75 701.57 2002.88 731.77 2002.26 769.12 1970.97 781.14 1937.57 781.14 1892.25 773.75 1889.09 766.35"/>
    <polygon class="cls-32" points="1893.9 783.9 1904.66 809.03 1919.7 828.85 1950.86 833.59 1979.69 821.5 1994.75 798.16 2002.26 769.12 1964.01 778.27 1926.43 779.32 1892.25 773.75 1893.9 783.9"/>
    <polygon class="cls-4" points="1903.38 417.49 1981.19 352.16 2030.17 297.86 2039.31 276.13 2035.05 242.28 2020.87 223.67 2000.72 216.54 1966.4 223.83 1934.42 239.81 1912.73 259.2 1892.32 287.84 1873.66 318.64 1865.4 360.52 1859.66 392.04 1857.64 428.08 1876.59 432.86 1903.38 417.49"/>
    <polygon class="cls-4" points="1894.41 483.8 1989.37 474.75 2073.32 481.65 2141.32 502.95 2173.51 536.7 2188.82 571.82 2174.24 599.07 2147.69 621.82 2115.7 620.24 2071.69 615.11 2005.42 590 1931.37 543.57 1878.65 505.94 1873.66 484.6 1894.41 483.8"/>
    <path class="cls-53" d="M1607.31,443.02l119.12-42.76s48.64,62.45,88.12,17.23c39.48-45.22,6.35,15.37,6.35,15.37l-20.49,10.16-29.55,1.84-49.48-33.39-72.91,22.62-41.16,8.92Z"/>
    <path class="cls-41" d="M1905.5,571.58s-81.16-35.9-96.34-128.57l-26.09,6.22v31.68l11.59,7.61,6.31,19.15,13.58,4.02,3.4,20.97,14.05,8.72,37.53,26.89,35.97,3.32"/>
    <path class="cls-39" d="M1869.53,428.08s170.34-122.94,156.82-197.21l12.97,27.34v32.77l-36.28,40.26-61.03,58.55-58.73,44.76-13.74-6.47Z"/>
    <path class="cls-39" d="M1873.66,493.55s248.78,156.56,300.58,105.51c51.8-51.05-34.96,22.75-34.96,22.75l-54.62-6.25-52.47-10.23-126.69-73.27-31.84-38.51Z"/>
    <path class="cls-6" d="M1896.64,575.59s5.46,7.35,8.86,29.74-22.51-14.87-22.51-14.87l13.65-14.87Z"/>
    <path class="cls-38" d="M1911.59,657.71s1.82-25.22-6.09-52.38c-8.16-28.05-14.51,52.74-14.51,52.74l20.59-.36Z"/>
    <path class="cls-6" d="M1912.73,659.68s2.2,3.9,0,56.52l-21.73-8.85v-49.28l21.73,1.61Z"/>
    <path class="cls-38" d="M1911.77,722.17s-2.85,32.29,8.84,53.36c11.69,21.07-33.96-6.41-33.96-6.41l7.25-56.29,17.87,9.34Z"/>
    <path class="cls-6" d="M1919.78,781.45s19.01,41.34,57.02,36.32-45.43,17.1-45.43,17.1l-34.73-36.8-4.39-21.11,27.53,4.49Z"/>
    <path class="cls-53" d="M1752.8,335.72s17.5,7.94,10.8,20.04c-6.69,12.1,13.25,1.35,13.25,1.35l-10.73-20.08-13.32-1.31Z"/>
    <path class="cls-53" d="M1816.76,361.5s16.45,20.15,6.48,23.1c-9.97,2.95,17.9,0,17.9,0l-12.19-16.93-12.19-6.17Z"/>
    <polygon class="cls-43" points="1797.56 1112.09 1826.93 1051.3 1861.77 995.69 1996.04 1135.12 1968.59 1181.2 1908.97 1221.93 1861.77 1232.72 1844.29 1260.86 1715.9 1221.93 1763.01 1190.36 1797.56 1112.09"/>
    <path class="cls-42" d="M1271.42,1372.02s209.82,147.42,367.98-51.12c0,0,143.14,20.52,195.25-114.33,0,0,102.37-2.21,146.4-87.01,44.03-84.8,19.78,28.18,19.78,28.18l-32.24,33.47-59.62,40.73-47.2,10.79-17.49,48.71-59.68,54.58-62.47,14.41h-67.94s-47.68,42.69-47.68,42.69l-96.21,56.13-73.93,6.14-84.32-16.7-80.64-66.67Z"/>
    <path class="cls-1" d="M1011.77,781.08l-14.63-48.32,5.37-51.73,1.94-10.43,20.98-2.89,8.88-26.57-17.76-16.29,9.19-27.44,9.19-11.1h-18.39l-14.04-16.89,11.09-27.43,20.71-12.61,14.62,4.99,14.52,11.54,12.76,5.13,35.76-27.67,52.29-15.11h53.14l5.71-8.31-2.79-11.89,6.35-4.44h17.14l12.81,3.39,13.43,6.42v11.32l-11.07,7.61-2.37,14.73,34.44,21.62,33.01,29.77,9.09,18.94,20.81,38.02,11.77,46.23-6.26,14.69-9.11,32.42,6.65,27.24-13.18,28.09-14.86,24.79-.1,6.22,3.22,8.37,10.62,2.7v7.75l-15.27,23-15.82,6.57-10.27-8.25-1.96-12.68-77.33,41.81c-13.27-12.57-26.54-25.15-39.81-37.72-8.13-7.7-16.26-15.4-24.38-23.1,6.23-1.09,12.46-2.19,18.7-3.28v-15.1l-8.64-17.93-17.59-10.42-17.14-1.14-18.75,12.95-72.58-7.58h-30.12Z"/>
    <polygon class="cls-8" points="997.14 634.55 991.71 657.71 1004.46 670.59 1017.28 670.59 1034.32 649.58 1025.75 627.97 1016.56 624.85 997.14 634.55"/>
    <polygon class="cls-8" points="1086.93 641.13 1081.48 666.03 1091.67 676.05 1106.87 675.38 1138.29 653.01 1133.21 627.97 1115.64 619.42 1101.83 622.36 1086.93 641.13"/>
    <polygon class="cls-8" points="1193.47 709.29 1197.65 729.44 1213.52 743.13 1230.99 740.74 1243.34 729.44 1250.67 707.66 1245.2 690.18 1223.85 684.95 1210.83 684.95 1193.47 709.29"/>
    <polygon class="cls-8" points="1041.57 717.52 1055.78 729.44 1060.05 743.13 1055.78 757.54 1045.7 761.5 1029.71 751.22 1025.75 729.44 1027.81 720.22 1041.57 717.52"/>
    <polygon class="cls-8" points="1114.47 788.65 1133.22 775.7 1153.73 778.19 1173.81 786.98 1179.36 801.24 1176.59 816.88 1166.6 826.9 1114.47 788.65"/>
    <polygon class="cls-8" points="1276.55 783.8 1286.32 783.8 1292.48 790.29 1292.48 797.74 1284.52 812.97 1271.42 825.29 1260.78 821.95 1256.13 803.96 1260.88 794.33 1276.55 783.8"/>
    <polygon class="cls-8" points="1168.95 573.34 1153.73 560.41 1159.79 542.01 1183.46 538.24 1202.26 551.02 1202.26 562.72 1193.47 573.34 1168.95 573.34"/>
    <polygon class="cls-8" points="1120.85 518.68 1120.85 504.74 1114.1 493.81 1130.59 478.16 1146.81 470.21 1157.82 473.33 1160.56 479.52 1156.91 491.76 1163.3 504.74 1120.85 518.68"/>
    <polygon class="cls-8" points="1325.98 581.6 1339.33 570.83 1347.85 560.41 1362.04 571 1377.28 591.81 1382.56 606.86 1379.5 622.36 1369.16 620.27 1352.54 629.42 1325.98 581.6"/>
    <polygon class="cls-8" points="1349.79 724.59 1359.49 751.22 1382.17 758.88 1392.34 746.3 1396.39 722.6 1391.09 701.99 1379.5 694.71 1363.87 692.38 1349.79 724.59"/>
    <path class="cls-50" d="M1271.42,825.29l16.56-16.4,4.51-18.61,3.25-1.64s80.3-78.8,30.25-207.05l36.06,68.97,1.82,41.81-8.15,15.14-3.18,26.53,6.95,17.17-5.22,17.25-25.28,40.42-.15,11.12,10.48,5.28,3.41,8.65-10.62,20.37-14.47,9.55-13.16-2.51-5.07-18.76-11.67,10.73-65.65,31.09-28.62-29.09,1.55-7.68s34.06-1.47,65.76-25.69"/>
    <path class="cls-51" d="M1088.02,670.11s42.24-2.95,37.17-46.04l10.33,8.86-2.59,24.78-17.29,16.22-15.43,3.87-12.2-7.69Z"/>
    <path class="cls-51" d="M1217.8,741.74s32.67-20.91,21.7-49.36l11.17,11.88-7.33,25.17-12.35,11.3-13.19,1.01Z"/>
    <path class="cls-46" d="M1284.91,656.97s32.81-2.55,9.91-55.09l15.48,27.07v25.24l-12.7,2.77h-12.7Z"/>
    <path class="cls-51" d="M1004.46,670.59s23.68-12.76,15.41-41.17l11.97,7.74v18.09l-14.55,15.33h-12.82Z"/>
    <path class="cls-51" d="M1034.94,753.85s22.47,10.18,16.15-21.09c-6.32-31.27,8.96,18.47,8.96,18.47l-8.04,11.07-17.07-8.44Z"/>
    <path class="cls-51" d="M1359.49,746.25s26.19,10.21,26.13-45.68l10.78,15.65v24.13l-14.22,18.52h-18.31l-4.38-12.63Z"/>
    <path class="cls-51" d="M1349.79,614.73l12.25-5.75,6.39,5.75s9.61-19.24-1.89-41.4c-11.51-22.16,16.02,33.53,16.02,33.53l-3.06,15.49-7.41-2.93-19.55,6.3-2.74-10.99Z"/>
    <path class="cls-51" d="M1164.27,569.6s33.96-3.08,30.74-23.7c-3.22-20.62,7.25,16.83,7.25,16.83l-8.8,10.61-16.88,2.53-12.31-6.27Z"/>
    <path class="cls-46" d="M1007.22,569.41s19,15.82,44-1.28l-16.28,18.18-27.72.28v-17.18Z"/>
    <path class="cls-46" d="M1260.86,815.78s25.26-2.93,26.24-29.01c.98-26.08,4.52,21.43,4.52,21.43l-12.26,10.37-14.06,5.51-6.06-8.12,1.63-.19Z"/>
    <path class="cls-46" d="M1155.46,812.97s23.13,3.84,18.35-15.23c-4.78-19.07,7.63,13.34,7.63,13.34l-11.12,15.82-14.86-13.94Z"/>
    <path class="cls-46" d="M1007.22,677.8s-11.24,68.99,34.67,103.28c45.91,34.29-34.67-5.49-34.67-5.49l-10.08-47.95,2.68-51.58,7.4,1.75Z"/>
    <path class="cls-46" d="M1241.37,507.71s31.65.52,17.44-17.82c-14.21-18.34,11.24,8.91,11.24,8.91l-3.52,8.91-9.91,3.58-15.25-3.58Z"/>
    <path class="cls-51" d="M1143.87,499.93s22.74-23.63-2.49-27.05,18.42,0,18.42,0l.66,11.72-3.55,7.16-5.85,3.66-7.19,4.51Z"/>
    <polygon class="cls-46" points="1156.2 504.74 1151.06 495.42 1157.82 494.44 1162.93 502.56 1156.2 504.74"/>
    <path class="cls-46" d="M1246.81,511.48s-4.05,24.14,6.18,26.23l-1.59-13.12,5.23-13.3-9.82.18Z"/>
    <g>
      <path class="cls-35" d="M129.75,811.75c-12.4-3.03-26.32-5.86-37.27.7-12.34,7.4-15.63,25.54-8.48,38.02,6.18,10.78,17.85,16.97,27.01,25.38,16.51,15.16,24.77,38.81,21.29,60.96-1.14,7.23-3.44,14.41-2.85,21.7.68,8.3,5.06,15.85,10.06,22.51,4.39,5.84,9.64,11.46,16.54,13.89,7.74,2.72,16.42.96,23.84-2.53,16.74-7.87,29.08-23.37,37.1-40.04,4.11-8.54,5-16.08,5.99-24.78,2.74-24.25-4.41-32.2-34.47-47.62-13.01-6.67-3.55-24.3-18.82-45.53-3.11-4.32-13.17-10.56-17.38-13.82-6.41-4.95-14.03-6.31-22.56-8.84"/>
      <path class="cls-35" d="M130.42,809.34c-9.61-2.34-19.72-4.55-29.61-2.66-8.63,1.65-16.04,7.05-19.83,15.03-3.46,7.28-4.18,15.84-1.88,23.58,2.58,8.72,9.08,15.33,15.97,20.9,7.25,5.86,14.85,11.15,20.76,18.46,5.63,6.96,9.74,15.18,12.18,23.78,2.44,8.59,3.22,17.7,2.04,26.57-.75,5.59-2.29,11.04-2.93,16.64s-.08,10.66,1.76,15.71,4.35,9.24,7.34,13.39c2.83,3.93,5.9,7.79,9.6,10.92,3.83,3.24,8.29,5.75,13.29,6.61,5.14.88,10.39.35,15.37-1.15,18.34-5.52,32.45-21.19,41.52-37.44,2.49-4.47,4.77-9.1,6.28-14,1.53-4.96,2.26-10.11,2.88-15.26.8-6.77,1.44-13.66-.02-20.39-2.81-12.95-14.32-20.65-25.13-26.79-2.02-1.14-4.05-2.25-6.1-3.33-1.87-.99-3.87-1.85-5.63-3.03-.14-.1-.28-.19-.42-.29-.38-.28.41.36-.18-.15-.25-.21-.49-.43-.72-.65s-.44-.46-.65-.69c-.39-.45-.14-.12-.46-.61-.91-1.37-1.23-2.12-1.68-3.48-1.01-3.12-1.41-6.42-1.89-9.65-.59-3.99-1.27-7.97-2.42-11.85-1.45-4.91-3.58-9.63-6.35-13.94-2.22-3.45-4.84-6.05-8.06-8.55s-6.68-4.83-10.03-7.23c-1.53-1.1-3-2.28-4.63-3.25-2.09-1.25-4.33-2.23-6.61-3.08-4.48-1.68-9.17-2.75-13.75-4.11-3.09-.91-4.41,3.91-1.33,4.82,4.59,1.35,9.27,2.43,13.75,4.11,3.83,1.43,6.98,3.64,10.27,5.99,3.03,2.16,6.12,4.23,9.06,6.5,1.46,1.12,2.89,2.31,4.19,3.61.25.25.5.51.74.78.14.15.27.31.41.47-.06-.08-.25-.34.03.04.87,1.15,1.65,2.38,2.39,3.61,4.48,7.41,6.36,15.54,7.61,24.01.88,5.92,1.74,12.57,6.59,16.69,1.48,1.26,3.12,2.11,4.84,3,2.03,1.05,4.05,2.12,6.05,3.22,3.46,1.9,6.89,3.89,10.17,6.08,2.68,1.79,4.88,3.42,7.22,5.63.99.93,1.93,1.91,2.8,2.95.57.68.51.6.94,1.19.39.54.76,1.09,1.11,1.65.64,1.04,1.21,2.13,1.7,3.26-.2-.47.1.26.16.4.1.27.2.54.3.82.22.62.41,1.25.58,1.89s.31,1.24.43,1.86c.06.3.11.6.16.9.03.15.05.31.07.46.02.12.04.23.05.35-.03-.24-.03-.26-.01-.08.17,1.39.27,2.79.3,4.18.08,3.28-.16,6.56-.52,9.81-.54,4.8-1.11,9.61-2.32,14.29-2.33,9.08-7.28,17.59-12.71,25.16-5.13,7.15-11.38,13.67-18.71,18.6-7.48,5.03-16.86,9.33-26.09,7.89-9.26-1.44-15.78-9.03-20.85-16.32-2.74-3.93-5.2-8.15-6.63-12.74-1.51-4.83-1.57-9.75-.77-14.72.85-5.28,2.2-10.45,2.79-15.78.49-4.41.53-8.87.13-13.29-1.59-17.9-9.81-35.2-23.26-47.22-6.63-5.93-14.3-10.67-20.49-17.11-2.76-2.88-5.27-6.17-6.79-9.89-1.4-3.42-2.04-7.04-2.01-10.7.05-7.06,2.71-14.25,8.1-19.03,6.68-5.92,16.26-6.35,24.68-5.27,4.57.58,9.07,1.64,13.53,2.73,3.13.76,4.46-4.06,1.33-4.82h0Z"/>
    </g>
    <path class="cls-34" d="M140.19,1156.05s150.99-228.72,56.88-329.57l39.41,16.61,27.86,33.29v58.79l-25.47,87.27-23.28,77.47-43.38,80.51-32.01-24.37Z"/>
    <path class="cls-34" d="M167.16,772.13s23.44-91.99-97.42-174.05h13.78l132.06,83-48.42,91.05Z"/>
    <path class="cls-7" d="M170.59,982.36c19.75-19.58,44.12-46.15,33.59-75.91-1.35-4.11-3.46-7.93-5.48-11.75-.77-1.52,1.22-3,2.45-1.81,1.2,1.13,2.5,2.51,3.65,3.72,20.03,23.23,8.96,52.59-10.62,71.84-6.53,6.47-13.69,12.14-21.82,16.49-1.62.82-3.15-1.33-1.78-2.57h0Z"/>
    <path class="cls-7" d="M113.82,811.01c22.2,5,61.52,25.19,60.79,51.6-.08,1.01-1.53,1.24-1.89.28-7.15-16.5-27.85-29.18-42.71-38.66,0,0-17.25-10.47-17.25-10.47-1.44-.83-.59-3.12,1.06-2.76h0Z"/>
    <line class="cls-24" x1="87.16" y1="571.01" x2="368.01" y2="745.38"/>
  </g>
  <g id="rona">
    <ellipse class="cls-30" cx="1108.5" cy="649.07" rx="33.27" ry="22.39" transform="translate(-84.6 1125.06) rotate(-52.1)"/>
    <path class="cls-5" d="M1127.49,678.27c3.52-7.6,6.91-15.59,8.61-23.68.73-3.72,1.15-7.61.56-11.25-.49-3.48-2.02-6.22-4.4-8.76-1.59-1.52-1.61-4.09,0-5.59,3.85-3.38,8.26,2.46,10.25,5.5,4.01,6.55,3.31,15.46.97,22.11-1.43,4.4-3.5,8.5-5.92,12.39-2.41,3.82-5.08,7.39-8.24,10.62-.89.93-2.45-.19-1.84-1.33h0Z"/>
    <path class="cls-5" d="M1091.99,674.9c0-.06,0-.12,0-.17,0,0,.02,0,.02,0,.11.05.33.45.42.55,2.17,2.77,5.18,4.22,8.62,5.68,4.78,1.89,9.77,3.06,14.61,4.9.75.25.75,1.4,0,1.63-2.67.91-5.42,1.43-8.24,1.64-7.86.48-17.12-1.54-21.75-8.67-.9-1.58-1.37-2.62-1.61-4.61-.46-5.27,7.15-6.18,7.94-.95h0Z"/>
    <ellipse class="cls-29" cx="1222.07" cy="714.04" rx="29.83" ry="27.83" transform="translate(-92.07 1239.73) rotate(-52.1)"/>
    <path class="cls-5" d="M1215.35,733.44c-7.93-4.36-13.59-13.83-11.68-23.02,1.83-9.22,10.98-15.43,19.71-16.7,1.1-.19,1.78,1.26.93,1.98-14.88,12.65-16.62,18.76-7.66,36.37.51.81-.47,1.83-1.29,1.36h0Z"/>
    <path class="cls-5" d="M1273.46,647.45c-8.74-9.91-20.36-27.77-16.46-41.63,2.14-7.77,9.89-11.87,17.42-12.66,16.45-2.39,28.64,11.66,34.74,24.97,1.5,3.22,2.81,6.49,3.9,9.82,2.26,7.12,4.6,14.87,2.14,22.29-4.33,13.34-19.53,12.82-30,7.53-.81-.38-.48-1.61.39-1.57,7.67.02,19.4,1.11,21.56-8.27,1.24-5.79-1.24-11.45-3.03-16.92-4.04-10.68-9.7-23.83-20.75-28.12-4.24-1.5-9.47-1.27-13.46.86-7.55,4.21-4.03,17.12-1.9,24.07,1.95,6.14,4.56,12.28,7.35,18.31.62,1.2-1.01,2.32-1.91,1.32h0Z"/>
    <path class="cls-5" d="M1265.64,610.55c2.82,9.59-11.7,19.68-19.13,22.98-.72.36-1.47-.59-.95-1.2,2.63-3.47,5.16-7.04,7.13-10.91,1.51-2.83,2.44-5.76,2.96-8.7.08-.21.03-.14.3.28-.68-2.68.95-5.4,3.62-6.07,2.68-.68,5.4.95,6.07,3.62h0Z"/>
    <path class="cls-5" d="M1300.36,662.6c-5.27,2.13-6.8,7.83-6.65,13.28.08.91-1.26,1.18-1.53.3,0,0-.74-2.38-.74-2.38-1.12-4.38-.89-9.2,1.6-13.21,1.13-1.77,2.53-3.57,4.55-4.41,4.28-1.72,6.96,4.5,2.77,6.43h0Z"/>
    <path class="cls-29" d="M1113.08,791.67c-5.09,13.93,8.07,10.52,28.09,27.23,14.5,12.1,31.05,10.19,36.14-3.75,5.09-13.93-5.16-30.48-22.89-36.97-17.74-6.48-36.24-.45-41.34,13.49Z"/>
    <path class="cls-5" d="M1171.19,797.51c-6.64-7.46,2.17-22.79,7.48-28.95.48-.62,1.54-.12,1.38.64-.2,1.13-.48,2.23-.67,3.34-1.03,5.83-1.84,12.27-.26,17.96.09.3.16.64.19.78.02.22.03.14-.39-.13,4.04,5.22-3.36,11.33-7.72,6.35h0Z"/>
    <path class="cls-5" d="M1124.07,773.46c-.14.02-.36.16-.44.01.02-.22.15-.45.26-.63,2.67-5.58,1.81-12.61,3.27-18.7.14-.89,1.32-1.27,1.95-.62,1.79,1.77,3.17,3.77,4.24,5.96,1.12,2.21,1.82,4.66,2.2,7.13.88,5.75-1.07,13.26-7.08,15.88-.33.13-.8.32-1.14.42-6.31,1.96-9.44-7.1-3.26-9.45h0Z"/>
    <path class="cls-5" d="M1165.71,805.7c-16.58-12.27-24.63-12.83-43.81-6.32-1.17.42-2.24-1.05-1.51-2.03,8.89-12.96,27.87-16.44,39.74-5.13,1.83,1.71,3.39,3.63,4.64,5.71,1.25,2.12,2.23,4.29,2.71,6.74.11.58-.27,1.15-.85,1.26-.34.07-.66-.04-.92-.24h0Z"/>
    <ellipse class="cls-29" cx="1177.99" cy="556.79" rx="19.07" ry="24.27" transform="translate(575.11 1711.87) rotate(-87.74)"/>
    <path class="cls-5" d="M1162.5,565.2c7.17,4.09,3.68,16.68.67,22.44-.32.67-1.38.52-1.51-.2,0,0,0-.03,0-.03l-.49-2.38c-.93-4.11-2.2-8.59-4.81-11.76,0-.08.13.12.74.35-5.45-3.74-.26-11.82,5.41-8.41h0Z"/>
    <path class="cls-5" d="M1199.35,573.2c.66-.49.73-.19.62.49-.2,1.65.41,5.51.68,7.36.21,1.67.44,3.3.38,5.09-.42,2.81-5.16-1.06-6.1-1.9-3.72-3.41-6.11-9.17-4.12-14.31.56-1.41,1.56-2.77,2.82-3.69,4.83-3.92,10.53,3.04,5.72,6.97h0Z"/>
    <path class="cls-5" d="M1163.56,559.78c13.3,5.4,20.27,3.79,31.17-5.25.59-.5,1.52.18,1.24.89-3.51,10.26-15.25,16.58-25.48,11.74-3.17-1.46-5.88-3.59-7.74-6.47-.35-.52.27-1.2.82-.91h0Z"/>
    <path class="cls-29" d="M1263.18,793.98c-3.68,4.73-5.97,9.89-6.74,14.56-.91,5.48.25,10.28,3.64,12.93,6.29,4.9,17.88.53,25.89-9.75,8.01-10.28,9.39-22.59,3.1-27.49s-17.88-.53-25.89,9.75Z"/>
    <path class="cls-5" d="M1253.2,803.77c-.58-.38-.57-1.15-.48-1.76.53-4.35.5-9.4-3.51-12.16,0,0-.15-.11-.15-.11-.56-.42-.69-1.21-.27-1.78.25-.34.65-.52,1.05-.52,1.81.04,3.75.61,5.46,1.69,3.25,2.22,5.33,5.8,6.53,9.4.51,1.86,1.51,3.71.45,5.6-.98,1.86-3.26,2.58-5.13,1.63l-3.96-2.01h0Z"/>
    <path class="cls-5" d="M1281.96,787.26c-6.9,1.98-17.71-3.44-17.16-11.39.04-.47.65-.68.98-.34,3.91,3.51,8.56,1.78,13.15,1.65.53,0,1.32,0,1.77.17,0,0,2.36,1.38,2.36,1.38,3.54,2.01,2.8,7.5-1.09,8.54h0Z"/>
    <path class="cls-29" d="M1055.12,734.12c-2.4-5.49-5.85-9.96-9.59-12.87-4.38-3.41-9.16-4.68-13.1-2.96-7.31,3.2-8.99,15.47-3.77,27.41,5.23,11.94,15.38,19.03,22.69,15.83,7.31-3.2,8.99-15.47,3.77-27.41Z"/>
    <path class="cls-5" d="M1051.27,720.68c.61-.33,1.28.04,1.77.41,3.57,2.53,8.03,4.92,12.37,2.71.65-.39,1.53-.18,1.85.53.18.39.15.82-.05,1.17-3.73,6.52-13.25,6.66-19.49,4.12-2.2-1.38-2.39-4.97-.11-6.43,0,0,3.65-2.52,3.65-2.52h0Z"/>
    <path class="cls-5" d="M1052.07,753.83c1.4-5.71,6.81-10.03,12.57-10.95,2.08-.21,4.12.26,5.62,1.29.4.26.29.9-.16,1.02-4.95,1.77-5.64,6.68-7.71,10.77-.26.47-.62,1.16-.99,1.47,0,0-2.34,1.41-2.34,1.41-3.42,2.17-7.95-1.14-6.99-5.03h0Z"/>
    <ellipse class="cls-29" cx="1373.96" cy="725.63" rx="22.39" ry="33.27" transform="translate(-38.48 78.07) rotate(-3.21)"/>
    <path class="cls-5" d="M1340.74,716.09c3.88,10.94,7.75,23.72,16.48,31.55,2.51,2.15,5.09,3.1,8.34,3.58,2.79.2,4.91,2.7,4.48,5.5-1.07,5.69-8.29,4.42-12.47,3.27-10.19-3.31-15.64-13.84-17.96-23.3-1.67-6.67-2.3-13.49-1.7-20.34.15-1.57,2.4-1.77,2.82-.26h0Z"/>
    <path class="cls-5" d="M1368.74,696.05c.07.09.19.15.19.26-.16.04-.29,0-.47-.02-.9-.11-1.77-.13-2.69-.1-3.66.23-8.2,1.83-11.82,3.24-3.17,1.13-6.16,2.48-9.5,3.34-.6.14-1.2-.23-1.35-.83-.06-.25-.03-.51.07-.73.62-1.33,1.38-2.53,2.16-3.75,5.09-7.15,13.34-12.94,22.61-12.15,2.93.39,5.19,1.2,7.49,3.31,4.77,4.58-1.66,11.7-6.7,7.42h0Z"/>
    <path class="cls-5" d="M1240.98,506.78c6.77,1.5,15.56,3.4,21.43-.58,1.88-1.36,2.96-3.88,3.16-6.11.37-6.6-11.23-9.97-16.55-11.31-2.1-.5-4.34-.92-6.49-1.17-4.17-.32-8.67-.39-12.75-.45-2,.15-4.38.21-5.74,1.59-1.63,3.25,3.24,10.67,4.97,13.63.35.58.16,1.32-.42,1.67-.45.27-1.01.21-1.39-.1-1.88-1.54-3.73-3.15-5.41-5.05-2.7-2.88-5.7-7.6-4.73-12.07,1.97-8.09,12.31-9.74,19.23-9.8,10.22.86,20.54,2.77,29.55,8.13,7.28,4.32,11.15,12.57,6.94,20.67-3.45,7.34-11.51,9.83-18.86,8.48-5.05-.86-9.63-2.69-13.95-5.34-.57-.36-.74-1.11-.39-1.68.3-.48.88-.67,1.39-.52h0Z"/>
    <path class="cls-5" d="M1253.24,538.65c-7.22-7.25-5.68-19.47-.33-27.36,3.32-4.71,10.37-.33,7.63,4.73-1,1.75-2.22,3.35-3.28,5.06-.94,1.54-1.81,3.21-2.34,4.95-1.11,3.44-1.14,7.44.45,10.74.89,1.45-.84,3.01-2.13,1.87h0Z"/>
    <path class="cls-5" d="M1204.17,517.4c6.68-.98,10.62-6.04,12.87-12.05.86-2.2,1.52-4.45,2.53-6.61.9-1.92,3.19-2.74,5.11-1.84,1.5.71,2.33,2.27,2.19,3.83-.23,2.75-.96,5.4-2.01,7.95-2.34,5.21-6.87,10.06-12.61,11.57-2.9.75-5.78.75-8.58-.29-.67-.25-1.02-1-.77-1.68.2-.56.73-.83,1.27-.88h0Z"/>
    <path class="cls-5" d="M1315.76,833.7c-4.79,5.01-10.96,11.55-10.59,18.64.19,2.31,1.78,4.54,3.59,5.86,5.46,3.73,14.35-4.45,18.24-8.31,1.51-1.54,3.03-3.24,4.36-4.95,2.43-3.4,4.82-7.22,6.98-10.68.91-1.79,2.09-3.86,1.61-5.73-1.94-3.08-10.81-2.75-14.24-2.8-.67,0-1.21-.55-1.21-1.22,0-.53.34-.97.81-1.14,2.29-.82,4.63-1.56,7.12-2.01,3.86-.82,9.45-.95,12.78,2.2,5.9,5.87,1.96,15.58-1.57,21.53-6.03,8.3-13,16.15-22.25,21.08-7.47,3.99-16.53,3.03-21.28-4.76-4.5-6.76-2.46-14.93,2.5-20.53,3.35-3.88,7.29-6.85,11.78-9.18,1.26-.64,2.4,1.08,1.36,2h0Z"/>
    <path class="cls-5" d="M1282.27,832.97c8.2-7.1,19.38,1.29,23.5,9.06,2.83,5.63-4.92,10.26-8.54,5.15-.84-1.16-1.4-2.53-2.09-3.78-.88-1.79-1.88-3.69-3.21-5.16-1.9-2.38-4.83-3.64-7.75-2.75,0,0-.63.11-.63.11-1.47.28-2.38-1.65-1.27-2.62h0Z"/>
    <path class="cls-5" d="M1319.76,796.14c2.12,9.25,9.83,15.4,15.3,22.68,1.53,1.99,1.11,4.9-.99,6.3-1.52,1.03-3.47.95-4.89-.03-2.26-1.55-4.21-3.48-5.97-5.57-3.47-4.39-6.08-9.62-6.98-15.23-.37-1.83-.71-10.69,2.53-9.59.64.23.88.85,1,1.44h0Z"/>
    <path class="cls-5" d="M1053.42,567.21c-7.64,17.64-27.43,34.34-46.27,20.86-5.43-3.76-9.95-9.42-10.95-16.19-2-14.46,9.27-26.23,19.29-34.83,2.76-2.24,5.64-4.56,8.66-6.46,3.48-2.24,7.55-3.65,11.68-3.98,12.29-1.15,24.23,7.55,26.08,19.59.51,3.86.24,7.22-.2,10.68-.27,1.98-3.14,1.89-3.33-.06-.29-3.14-.75-6.35-1.7-9.34-2.74-7.99-11.48-12.94-19.63-11.28-4.08.75-7.39,3.41-10.35,6.15-6.68,6.15-13.33,12.99-16.56,21.08-2.37,6.12-.41,10.67,4.51,14.66,6.35,5.76,14.69,3.75,21.46-.34,5.3-3.09,10.38-7.38,15.17-11.93.96-1.05,2.71.11,2.13,1.39h0Z"/>
    <path class="cls-5" d="M1030.3,581.34c10.97,1.35,19.91,13.08,24.29,22.43.65,1.38-.98,2.83-2.26,2.03-1.16-.68-2.26-1.41-3.32-2.14-6.25-4.21-12.59-8.59-19.26-11.94-.28-.17-.58-.26-.79-.44,0,0,0-.02,0-.02.01,0,.12,0,.17,0-6.53-.98-5.41-10.51,1.18-9.93h0Z"/>
    <path class="cls-5" d="M1058.72,536.42c5.83,4.65,11.99,9.18,18.99,11.93,4.5,1.75,9.02,2.7,13.94,3.32.99.13,1.08,1.6.11,1.84-3.3.89-6.8,1.47-10.33,1.36-3.54-.03-7.13-.6-10.53-1.63-6.94-2.02-13.58-5.85-18.05-11.63-2.88-3.97,2.31-8.48,5.89-5.19h0Z"/>
    <path class="cls-5" d="M1380.55,741.2c1.32-9.76,3.28-17.86-1.62-27.04-.4-.72.39-1.61,1.15-1.3,11.88,4.61,11.3,22.23,2.23,29.42-.77.65-1.99-.12-1.76-1.09h0Z"/>
    <path class="cls-31" d="M1366.54,690.18s-3.39-107.22-112.24-166.63"/>
    <path class="cls-5" d="M1215.72,516.88c-32.7-5.75-66.96.21-96.86,14.25-8.18,3.94-16.33,8.49-23.85,13.56-2.27,1.41-5.36,3.71-7.57,5.24-2.15,1.53-4.3,3.33-6.43,4.89-.41,0-.84-.3-1.33-.67-.38-.31-.84-.62-1.27-1.03-.78-.74-1.83-1.59-2.49-2.45-.92-1.34-2.13-2.99-2.64-4.47-.28-.69.56-.88.89-1.31,0,0,1.84-1.62,1.84-1.62,13.53-11.93,28.9-22.06,45.44-29.31,28.76-12.68,61.79-17.17,92.56-9.8,1.68.4,3.44.95,5.09,1.49,0,0-3.37,11.23-3.37,11.23h0Z"/>
    <path class="cls-31" d="M1325.98,812.97s28.8-37.63,33.51-61.75"/>
    <ellipse class="cls-29" cx="1011.77" cy="649.58" rx="24.27" ry="19.07" transform="translate(.82 1300.44) rotate(-65.48)"/>
    <path class="cls-5" d="M1013.69,667.11c6.47-5.1,16.86,2.92,21.02,7.89.5.55-.04,1.47-.76,1.32,0,0-.03,0-.03,0l-2.39-.45c-4.15-.69-8.78-1.22-12.71,0-.07-.04.16-.07.6-.55-5.52,3.62-11.04-4.23-5.74-8.19h0Z"/>
    <path class="cls-5" d="M1035.53,635.91c-.05-.28-.17-.65.02-.88.14-.05.15,0,.3.05,2.6,1.37,6.28,2.01,9.2,3.11,1.15.48,4.29,1.14,2.98,3.03-2.58,2.98-5.88,4.55-9.77,4.99-4.58.56-10.57-1.76-12.12-6.73-.04-.14-.16-.5-.19-.64-.92-2.76.62-5.79,3.48-6.52,2.67-.7,5.4.91,6.1,3.58h0Z"/>
    <path class="cls-31" d="M1016.56,626.16s4.83-19.7,18.39-34.35"/>
    <path class="cls-31" d="M1013.61,784.99s-29.29-71.46-9.73-111.11"/>
    <path class="cls-5" d="M1352.79,595.98c3.68,4.28,7.46,8.49,11.39,12.39,3.58,3.3,7.39,7.41,12.02,8.76.36.06.58,0,.6-.04.02-.06-.11-.04-.1-.1,2.75-7.66-.28-15.8-4.07-22.91-4.96-8.96-12.21-17.56-20.01-23.87-1.76-1.28-3.95-2.84-5.87-2.95-.08,0-.16.12-.28.16-.04,0-.15.15-.23.24-2.81,2.97-3.97,7.26-3.25,11.41.17,1.31.57,2.72.96,3.95.23.76-.19,1.56-.95,1.8-.53.16-1.08,0-1.44-.36-2.32-2.41-3.78-5.21-4.54-8.47-1.01-4.1-.14-8.92,2.09-12.66,1.37-2.69,4.09-4.73,7.15-5.1,7.71-.77,14.15,4.88,19.41,9.47,11.14,10.32,20.09,24.27,20.94,39.91.3,7.28-2.53,19.54-12.35,16.59-6.25-2.35-10.03-7.66-13.86-12.61-3.42-4.7-6.39-9.6-9-14.73-.44-.86.76-1.63,1.36-.89h0Z"/>
    <path class="cls-26" d="M1351.66,629.42s6.07-7.04,20.77-9.16"/>
    <path class="cls-29" d="M1319.86,581.79s9.51-3.61,20.37-10.96"/>
    <path class="cls-5" d="M1142.7,499.11c5.77-3.83,13.24-8.85,14.44-15.84.32-2.29-.74-4.82-2.21-6.51-4.5-4.84-14.98,1.18-19.62,4.08-1.81,1.17-3.67,2.49-5.34,3.86-3.12,2.78-6.29,5.97-9.17,8.87-1.28,1.54-2.89,3.3-2.84,5.24,1.21,3.43,9.93,5.07,13.27,5.87.65.15,1.06.8.91,1.46-.12.51-.55.87-1.04.93-2.41.29-4.86.5-7.39.39-3.95-.05-9.43-1.16-11.98-4.96-4.46-7.03,1.53-15.62,6.28-20.65,7.71-6.77,16.24-12.88,26.35-15.65,8.16-2.24,16.79.69,19.7,9.34,2.89,7.58-.9,15.11-6.97,19.47-4.12,3.04-8.62,5.07-13.52,6.35-.65.16-1.31-.23-1.48-.89-.14-.55.12-1.1.59-1.36h0Z"/>
    <path class="cls-28" d="M1170.73,505.79s-14.39-1.81-12.78-15.9"/>
    <path class="cls-27" d="M1121.1,517.86s3.6-6.87-1.69-13.12"/>
    <path class="cls-31" d="M1297.87,840.86s-17.23,25.56-74.02,43.54"/>
  </g>
  <g id="hoved">
    <path class="cls-23" d="M579.43,359.86c-8.13,1.26-17.1.15-23.83-5.05-.42-.35-.9-.81-1.24-1.23l1,1.1c-14.03-9.11-26.05-21.53-35.34-35.49-29.67-42.51-37.74-97.05-25.37-146.91,5.33-22.11,13.5-43.6,25.36-63.06,27.36-46.64,80.31-89.81,137.89-103.12,59.49-15.24,124.11.33,169.47,21.26,55.6,16.55,106.06,58.33,122.49,115.43,7.86,27.73,10.39,58.16.45,85.66-1.97,5.43-4.33,10.66-7.41,15.58-1.32,2.09-4.09,2.72-6.18,1.4-1.18-.74-1.88-1.93-2.06-3.22-.83-5.52-1.13-10.94-1.41-16.41-.63-11.75-.83-23.24-1.37-34.91-.65-23.58-6.5-47.27-18.62-67.58-19.87-33.7-55.2-57.4-92.48-68.39,0,0-.82-.22-.82-.22-1.01-.19-1.95-.54-2.87-.9-24.43-10.48-49.81-18.41-75.58-22.01-51.43-7.63-103.67,4.52-145.06,36.33-20.18,15.42-38.25,34.3-51.54,56.03-15.41,25.26-25.15,54.3-27.84,83.75-3.18,33.99,5.2,68.64,24.1,97.19,8.38,12.58,17.31,24.03,26.37,36.5,0,0,.88,1.2.88,1.2.06.08.19-.01.13-.09,0,0-.19-.22-.2-.23-.03-.02-.03-.02-.05-.04l-.09-.05c-.09.03-.03.14-.02.23,2.13,3.76,6.6,6.29,10.24,8.66.8.47,1.64.96,2.45,1.49,3.02,1.79,1.96,6.63-1.46,7.08h0Z"/>
    <path class="cls-23" d="M764.72,389.05c-9.51,18.43-29.72,45.57-51.18,50.15-16.46,3.42-28.26-8.13-31.34-23.42-2.68-11.76-1.27-23.66,2.95-34.63,1.03-2.67,2.29-5.28,3.88-7.85.84-1.35,2.61-1.76,3.96-.92.46.29.8.67,1.04,1.12,2.05,3.77,3.48,7.69,4.92,11.57,2.02,5.76,3.92,12.35,5.56,17.67,1.23,3.58,2.24,8.19,4.74,10.4.03.01.07.07.08.01.03-.15-.3-.48-.52-.59-.38-.32-.92-.49-1.25-.55-.27-.12-.4-.07-.18-.2,2.77-1.3,4.85-2.92,7.43-5.06,10.11-8.83,18.88-19.82,27.78-29.98.63-.74,1.22-1.36,1.84-2.02,10.21-10.42,26.65,1.33,20.31,14.31h0Z"/>
    <path class="cls-23" d="M699.2,420.63c-20.35,19.99-53.91,23.09-63.94-8.71-2.1-6.89-2.52-14.32-1.89-21.12.83-8.74,2.97-16.99,6.89-24.82,1.59-3.24,6.56-2.88,7.67.52,3.98,11.5,5.7,23.67,10.32,34.61.99,2.31,2.48,5.09,4.38,6.32.42.26.69.29.97.34,1.14.17,2.36.12,3.89-.16,4.95-.85,11.21-4.11,15.95-6.39,13.27-9.94,28.22,8.44,15.76,19.41h0Z"/>
    <path class="cls-23" d="M651.64,424.4c-10.75,7.27-23.56,12.09-37.05,10.87-14.78-1.39-25.46-12.54-27.1-27.07-1.5-12.2,1.83-24.01,6.74-34.75,1.89-4,4.02-7.85,6.57-11.49,1.25-1.78,3.7-2.21,5.48-.97,1.01.7,1.58,1.79,1.67,2.93,1.03,9.56-.89,38.39,6.13,43.67,1.8.58,3.02.67,6.47.35,5.44-.63,12.12-2.91,17.59-4.86,0,0,.58-.21.58-.21l.27-.09c.07-.02.2-.07.16-.03,14.67-7.72,26.53,12.79,12.5,21.65h0Z"/>
    <path class="cls-17" d="M595.78,404.65s-53.9,11.96-38.03-56.5"/>
    <path class="cls-3" d="M646.81,286.84c-.18,6.62-.99,14.88-3.32,24.1-1.81,7.19-4.14,13.36-6.43,18.42-.95.02-9.3.11-12.91-5.66-1.58-2.52-2.16-6.15-.63-11.41,5.15-17.6,23.29-25.46,23.29-25.46Z"/>
    <path class="cls-3" d="M668.5,289.46c-1.83,6.37-3.54,14.48-4.1,23.98-.44,7.4-.08,13.98.58,19.5.9.31,8.84,2.9,14.02-1.5,2.26-1.93,3.92-5.22,4.04-10.69.4-18.34-14.53-31.29-14.53-31.29Z"/>
    <ellipse class="cls-15" cx="581.78" cy="239.76" rx="42.99" ry="56.69"/>
    <ellipse class="cls-15" cx="762.94" cy="264.24" rx="55.03" ry="60.61"/>
    <polygon class="cls-14" points="805.05 45.55 781.68 58.82 791.78 73.24 762.94 91.41 771.01 103.24 744.18 125.74 787.45 107.28 782.26 95.16 817.97 79.3 804.76 62.85 831.58 55.64 805.05 45.55"/>
    <path class="cls-2" d="M554.63,199.27c-25.79,31.82-8.66,65.85.01,79.15.82,1.26,2.79.46,2.49-1.01-2.29-11.39-2.97-25.83-3.13-42.6-.13-13.16,1.23-24.79,3.05-34.43.26-1.4-1.52-2.21-2.42-1.11Z"/>
    <path class="cls-2" d="M728.62,217.03c-30.98,37.5-9.75,77.82.08,92.56.85,1.27,2.82.45,2.5-1.05-2.8-13.25-3.61-30.22-3.8-50-.15-15.49,1.49-29.13,3.65-40.38.27-1.4-1.52-2.24-2.43-1.14Z"/>
    <path class="cls-23" d="M726.83,366.25c17.78,4.77,36.7,2.74,54.39-1.43,13.46-2.99,26.28-8.45,39.33-12.83,4.58-1.77,9.24-3.39,14.07-4.6,6.71-1.73,13.54,2.31,15.27,9.01,1.46,5.67-1.21,11.44-6.12,14.13-4.51,2.47-9.21,4.58-13.95,6.55-4.89,1.68-9.8,3.35-14.81,4.6-3.66.83-7.77,1.62-11.47,2.33-2.54.41-9,1.15-11.66,1.5-20.77,1.77-42.63.27-61.53-9.23-2.49-1.32-4.6-2.53-6.95-4.31-3.09-2.51-.26-7.16,3.42-5.71h0Z"/>
  </g>
  <g id="myg">
    <path class="cls-13" d="M1757.63,332.48c51.33-41.88,79.86,21.96,81.43,50.17.67,12.07-2.49,23.97-8.9,34.23-44.36,71-106.91-3.98-106.91-3.98l-168.77,51.97,154.76-79.16s-.02-12.37,8.21-16.51"/>
    <circle class="cls-16" cx="1746.75" cy="360.54" r="30.09"/>
    <path class="cls-13" d="M1919.7,538.63c-1.31,5.2-2.42,9.49-3.37,13.03-3.69,13.79-16.51,23.31-30.76,22.43-33.93-2.08-57.86-41.31-57.86-41.31l-5.3,5.35c-16.16-10.55-12.81-33.28-12.81-33.28l-7.2,4.8c-10.85-13.53-6.91-32.07-6.91-32.07l-10.61,6.23c-6.6-15.84,1.09-34.56,1.09-34.56"/>
    <path class="cls-23" d="M1836.77,409.21c15.39,5.7,29.76,13.61,44.98,19.84,5.14,2.16,10.37,4.09,15.97,6.21l-.03,1.21c-11.6,3.35-24.09,2.41-35.73-.18-11.64-2.77-22.97-7.13-32.56-14.41,0,0,7.36-12.67,7.36-12.67h0Z"/>
    <path class="cls-23" d="M1891.53,438.85c-.3,1.59-.64,3.17-.99,4.74.39-1.34.32-2.98-.24-4.35-.97-2.48-3.4-4.21-6.04-4.32,8.68-.01,18.19,5.5,24.71,11.47.32.29,1.19,1.08,1.5,1.36,4.99,4.22,3.55,12.69-2.64,14.94-1.51.52-1.72.45-2.46.56,0,0-4.81.59-4.81.59l-2.4.3.38-.07c4.16-.88,6.46-5.86,4.32-9.59-.49-.9-1.19-1.68-1.97-2.21,5.47,4.15,10.83,9.27,17.91,10.28,2.77.43,5.83.17,9-.97l.42.52c-1.01,1.44-2.2,2.78-3.62,3.91-7.75,5.85-18.86,4.68-27.33,1.2-2.84-1.37-6.06-2.66-7.64-5.6-2.72-4.77.23-11.22,5.58-12.32,2.12-.43,6.1-1.22,8.25-1.65-5.35.8-7.88,7.95-3.52,11.95-.32-.25-1.01-.85-1.34-1.12-4.28-3.4-9.11-6.85-14.5-7.82-.26-.04-.61-.04-.88-.07-3.25-.25-6.2-2.43-7.4-5.49-1.51-3.44.12-6.89,1.21-10.14,0,0,14.49,3.89,14.49,3.89h0Z"/>
    <line class="cls-13" x1="1906.88" y1="464.9" x2="1910.42" y2="484.6"/>
    <path class="cls-13" d="M1889.5,483.14s-23.14-2.93-13.48,17.99c3.22,6.97,8.35,12.87,14.61,17.32,28.25,20.09,135.02,93.76,186.3,97.23,59.41,4.02,57.51,17.85,97.32-16.61,30.16-26.1-1.84-67.05-19.13-85.38-5.73-6.08-12.71-10.84-20.47-13.93-14.83-5.9-41.73-15.77-61.31-18.11-27.64-3.31-103.72-5.02-112.31-3.51-8.24,1.45-71.52,4.99-71.52,4.99Z"/>
    <path class="cls-18" d="M1856.97,423.36s2.86-157.08,101.24-196.48c69.12-27.68,80.46,13.07,81.09,39.76.28,11.83-3.67,23.35-11.03,32.61-16.85,21.19-53.83,64.72-95.37,94.81-19.5,17.1-32.2,27.33-53.28,40.49"/>
    <path class="cls-18" d="M1892.25,606.07s25.14,3.89,46.55-14.2"/>
    <path class="cls-18" d="M1896.64,655.39s34.62,13.77,69.45-21.03"/>
    <path class="cls-18" d="M1892.28,712.23s66.99,21.42,102.47-10.66"/>
    <path class="cls-18" d="M1892.25,773.75s73.04,21.53,108.57-7.39"/>
    <line class="cls-15" x1="1723.65" y1="341.96" x2="1774.3" y2="362.36"/>
    <path class="cls-22" d="M1880.97,405.1s97.35-145.32,122.06-155.66"/>
    <ellipse class="cls-23" cx="1734.48" cy="363.01" rx="7.92" ry="8.46" transform="translate(37.46 873.22) rotate(-28.55)"/>
    <path class="cls-18" d="M1882.25,575.81s21.62,37.69,6.75,157.95c-.87,7-1.13,14.08-.68,21.12,1.68,26.35,11.1,81.8,60.88,78.56,65.15-4.24,52.74-103.71,52.74-103.71,0,0-12.09-71.65-52.19-122.42-4.92-6.23-9.52-12.71-13.65-19.49l-20.87-34.26"/>
    <path class="cls-22" d="M1957.32,295.65s-5.95-36.5-2.96-47.91"/>
    <path class="cls-22" d="M1928.18,337.8s9.84,8.29,24.87,3.33"/>
    <path class="cls-22" d="M1907.42,361.96s-10.5-15.34-7.58-30.72"/>
    <path class="cls-22" d="M1913.41,504.94s190.92,51.63,225.88,72.88"/>
    <path class="cls-22" d="M2100.55,553.19s6.97-8.41,26.12-14.22"/>
    <path class="cls-22" d="M1995.19,523.53s26.6-17.4,58.83-24.63"/>
    <path class="cls-22" d="M2046.54,543.57s-1.01,30.53,16.66,42.34"/>
    <line class="cls-13" x1="1859.66" y1="565.3" x2="1845.63" y2="554.3"/>
    <path class="cls-13" d="M1784.89,483.8s-70.1,14.6-93.45,43.45"/>
    <path class="cls-13" d="M1794.97,488.53s-11.07,63.02-48.22,87.06"/>
    <path class="cls-13" d="M1820.9,536.8s-75.96-18.57-114.3,23"/>
    <path class="cls-13" d="M1832,538.97s-6.01,44.01-31.6,65.7"/>
    <path class="cls-13" d="M1829.83,624.97s30.93-36.21,36.46-53.39l16.98,8.01"/>
    <path class="cls-11" d="M1845.63,454.16s7.42,4.9,4.73,10.74"/>
    <path class="cls-11" d="M1833.09,477.59s8.11,2.44,6.06,12.75"/>
    <path class="cls-11" d="M1869.53,522.63s3.72,3.98,4.13,10.03"/>
    <line class="cls-11" x1="1871.59" y1="464.9" x2="1871.59" y2="470.41"/>
    <line class="cls-11" x1="1833.09" y1="517.12" x2="1833.09" y2="519.54"/>
    <line class="cls-11" x1="1814.55" y1="458.81" x2="1814.55" y2="460.25"/>
    <circle class="cls-16" cx="1806.94" cy="387.31" r="30.09"/>
    <line class="cls-15" x1="1783.83" y1="368.73" x2="1834.49" y2="389.13"/>
    <ellipse class="cls-23" cx="1794.66" cy="389.78" rx="7.92" ry="8.46" transform="translate(31.98 905.25) rotate(-28.55)"/>
    <path class="cls-19" d="M1774.3,318.64s-3.92-17.75,3.86-33.51"/>
    <path class="cls-19" d="M1813.35,326.09s2.2-21.34,9.91-32.9"/>
    <line class="cls-11" x1="1768.42" y1="419.58" x2="1768.42" y2="419.44"/>
    <line class="cls-11" x1="1787.67" y1="342.39" x2="1787.67" y2="341.25"/>
  </g>
  <g id="Outline">
    <g>
      <path class="cls-21" d="M1407.47,1455.14c16.19,29.72,37.2,76.52,47.23,137.34,9.7,58.85,5.41,108.41,0,141.29-9.2,6.19-29.89,18.31-59.01,20.51-31.84,2.4-55.82-8.41-65.64-13.52,2.47-289.36-205.27-400.65-205.27-400.65"/>
      <path class="cls-21" d="M1804.67,1073.01c-22.05,231.52-227.19,149.27-227.19,149.27-169.34,187.03-435.96,95.37-435.96,95.37"/>
      <path class="cls-23" d="M1190.25,1126.47c9.86,19.75,14.37,42.02,15.1,64.03,2.16,56.89-27.61,112.16-71.06,147.89-34.88,28.67-80.3,46.01-125.33,48.28-43.31,1.89-89.81-8.58-121.45-39.82-24.81-23.47-48.74-51.16-71.77-76.4-7.12-7.88-14.25-15.94-21.17-23.39-5.17-5.51-9.05-9.58-14.85-13.32-2.26-1.47-4.9-2.82-7.31-4.19-10.81-5.43-22.65-8.82-34.69-10.16-11.92-1.39-24.09-1.05-36.05.42-2.4.32-6.49.91-8.94,1.33-12.11,2.46-24.37,3.53-36.64,3.33-76.55-.23-139.61-60.88-141.51-137.45-.5-19.43,2.91-39.13,11.01-56.83.33-.71,1.17-1.03,1.88-.7.52.24.83.75.83,1.29.23,10.82.54,21.25,1.75,31.48.52,4.86,1.33,10.33,2.18,15.13,15.76,84.92,74.39,133.37,161.25,113.53,14.25-2.3,28.73-3.26,43.19-2.17,11.89.94,23.65,3.26,34.97,7.13,11.62,4.23,22.91,9.67,32.63,17.47,9.45,7.82,16.13,15.83,23.99,24.37,17.61,19.5,35.7,39.59,53.42,58.72,8.92,9.61,17.67,18.91,27,27.78,4.93,4.58,10.87,9.87,16.11,13.11,16.91,10.5,36.83,16.59,57.31,18.77,5.98.56,12.41,1.03,18.43,1.02,3.23.08,7.8-.05,11.04-.14,28.25-1.74,56.3-9.81,81.1-23.34,34.79-18.85,62.57-49.96,78.18-86.24,10.86-25,16.19-52.98,16.74-80.53.25-13.05-.44-25.76-2.1-38.97-.17-1.38.81-2.65,2.19-2.82,1.1-.14,2.13.46,2.59,1.4h0Z"/>
      <path class="cls-23" d="M1662.07,1009.39c28.94,24.51,64.65,52.27,102.89,55.66,18.83,1.38,35.67-6.1,48.85-19.43,39.5-38.29,24.21-87.61-.54-130.21-8.11-14.03-17.43-27.69-27.48-40.97-.49-.6-.39-1.51.24-1.98.48-.36,1.13-.36,1.6-.05,7.11,4.75,13.64,10.17,19.93,15.92,9.49,8.69,18.16,18.24,25.95,28.52,34.27,45.12,44.25,101.98,1.39,145.44-44.62,45.64-101.42,27.68-142.18-12.18-12.24-11.93-23.19-25.04-31.92-39.7-.23-.39-.1-.9.3-1.13.32-.19.72-.13.98.11h0Z"/>
      <path class="cls-23" d="M1936.5,1042.57c-2.98-22.83-17.2-41.96-35.56-55.07-17.91-12.85-38.78-21.67-60.19-26.66-6.89-1.02-11.64-7.43-10.62-14.32,1.1-8.21,10.2-13.06,17.68-9.67,37.53,15.43,80.22,45.89,89.19,87.7,1.26,5.94,1.67,11.96,1.63,17.9-.06,1.28-1.93,1.48-2.14.11h0Z"/>
      <path class="cls-23" d="M1204.49,1163.53c31.52,9.25,64.12,15.3,96.84,18.11,76.65,6.83,161.26-7.44,208.16-74.46,10.11-13.66,17.6-31.12,18.01-47.95,1.17-31.83-25.91-53.49-52-67.4-9.67-5.28-19.9-9.89-30.3-14.61-2.05-.86-1.25-4.04.99-3.81,23.41,2.21,46.88,8.66,66.96,21.26,37.03,23.19,46.43,62.85,30.65,102.32-3.4,8.76-7.94,17.09-13.32,24.86-15.11,22.75-35.39,42.16-58.83,56.32-51.51,31.16-114.06,37.01-172.85,31.37-34.89-3.61-69.46-10.69-102.55-22.38-15.17-6.14-7.55-28.23,8.25-23.6h0Z"/>
      <path class="cls-21" d="M523.01,1102.39s-135.84,56.77-186.3-65.18c-50.46-121.94,47.3-160.84,47.3-160.84"/>
      <path class="cls-23" d="M2012.74,754.51c26.78,29.84,50.38,67,51.88,108.39,1.72,39.55-20.23,76.76-50.96,100.34-2.16,1.66-4.22,3.16-6.54,4.66,0,0,2.8-9.01,2.8-9.01,6.32,13.97,11.54,28.54,15.23,43.58,14.54,57.06,4.47,121.42-31.82,168.74-2.45,2.83-5.14,5.7-7.75,8.35-22.12,22.21-46.72,41.77-75.88,54.45-15.11,6.44-31.44,10.66-48.19,10.41,0,0,11.29-7.82,11.29-7.82-7.57,21.96-18.82,42.59-33.31,60.84-36.09,46.3-93.87,73.54-152.3,74.66-11.65.33-23.32-.21-35.03-1.88l11.13-3.3c-55.62,49.56-121.62,95.38-198.16,101.53-38.26,2.71-77.7-3.87-112.15-20.8-31.88-15.68-59.96-38.53-80.58-67.36-1.35-2.02-2.66-3.83-3.92-5.98-1.07-1.74-.53-4.02,1.21-5.09,1.44-.89,3.25-.67,4.44.42l.21.2,2.38,2.19c12.32,11.09,25.71,21.17,39.6,30.11,29.15,18.73,61.48,32.3,95.56,37.59,62.88,10.13,118.17-10.55,170.11-44.8,22.3-14.59,43.15-31.08,63.28-48.66,3.11-2.71,7.17-3.73,10.95-3.15,19.98,3.1,40.9,2.73,60.88-.79,61.88-10.41,112.77-54.74,133.7-113.66,1.74-4.82,6.37-7.77,11.22-7.63,12.83.39,26.15-2.77,38.9-7.99,28.84-12.14,54.77-32.58,76.42-55.28,33.47-41.94,43.27-99.75,32.01-151.67-3-14.1-7.35-27.97-12.79-41.46-1.41-3.34-.14-7.14,2.8-9.02,0,0,1.25-.85,1.25-.85,21.61-15.69,39.14-38.39,45.72-64.46,11.74-46.34-15.28-91.37-45.94-124.66-3.09-3.39-2.84-8.65.55-11.74,3.41-3.11,8.72-2.84,11.79.61h0Z"/>
      <g>
        <path class="cls-23" d="M811.53,999.05c-6.63,48.79,3.16,99.82,38.72,135.33,29.86,30.17,73.79,44.14,115.75,40.74,3.23-.21,6.46-.61,9.62-1.34,18.42-3.58,36.63-8.59,52.61-17.71,9.33-5.14,18.15-12.08,24.03-20.72,2.04-2.78,3.57-6.26,5.41-9.13,0,0,3.07-4.61,3.07-4.61,8.53-12.78,7.87-28.81,5.98-43.78-1.31-10.33-3.8-20.41-6.56-30.55-4.03-12.91-9.57-30.56-12.03-43.8-6.88-33.2-5.46-75.24,31.1-90.1,22.8-8.75,48.8-3.91,69.91,6.34.72.37,1.01,1.25.64,1.98-.29.57-.89.86-1.49.79-23.95-1.41-58.94-1.92-72.6,20.12-9.29,16.51-6.26,37.58-2.28,55.46,3.12,13.7,8.56,27.9,12.96,41.35,3.39,11.06,6.57,22.72,8.38,34.28.69,3.39,1.15,8.61,1.52,12.09.23,1.73.24,4.48.32,6.24.48,12.14-1.12,24.9-6.06,36.11-1.9,4.7-5.12,9.63-7.85,13.9-1.88,3.24-3.66,6.94-5.86,9.97-18.11,26.57-48.87,39.82-78.91,47.32-1.73.33-6.89,1.66-8.61,2-2.24.51-6.65,1.18-8.89,1.63-1.68.2-4.26.9-6.02.97-44.09,4.4-90.03-7.71-124.94-35.35-45.8-35.31-65.64-93.68-49.66-149.25,2.09-7.38,4.76-14.57,8.16-21.38.47-.94,1.61-1.32,2.55-.85.75.37,1.14,1.18,1.03,1.96h0Z"/>
        <path class="cls-23" d="M1082.97,1086.95c25.99,1.08,52.36.73,77.99-3.13,14.3-2.41,28.72-5.8,42.05-11.53,10.79-4.72,20.99-10.95,29.08-19.19,4.09-4.12,7.61-8.92,10.84-13.81,22.06-33.5,41.94-68.86,63.48-102.86,5.03-8.16,10.77-15.92,16.84-23.26,8.26-10.13,17.8-19.29,28.53-26.79,34.55-23.29,102.74-26.75,143.96-26.95,18.01-.2,36.45.18,54.34.77,17.66.72,33.6-.43,50.8-3.96,16.91-3.32,33.51-8.19,49.56-14.5,11.69-4.62,23.26-9.68,33.58-16.93,23.96-16.61,41.86-40.7,50.63-68.78,5.13-16.16,7.23-33.57,7.02-51.39-.02-1.36,1.07-2.47,2.43-2.49,1.11-.01,2.06.72,2.38,1.73,5.52,17.89,6.69,37.13,3.7,55.75-4.58,29.75-20.96,57.88-44.05,77.4-13.69,11.88-29.96,20.23-46.65,27.05-34.53,14.22-72.38,23.41-109.85,22.32-44.02-.47-88.47-1.17-131.84,6.67-15.75,2.96-33.1,6.86-46.6,14.43-1.32.73-2.54,1.58-3.77,2.4-8.34,6.03-15.8,13.28-22.25,21.3-4.61,5.67-9.07,11.5-12.92,17.65-23.46,37.01-45.2,76.06-70.13,112.22-2.92,4.03-6.59,8.23-10.16,11.82-2.48,2.55-3.38,3.11-5.74,5.28-26.6,22.5-61.53,30.59-95.36,33.87-22.91,1.94-46.72,1.48-69.41-.12-6.89-.45-12.1-6.41-11.65-13.29.45-6.86,6.37-12.05,13.18-11.66h0Z"/>
      </g>
      <path class="cls-23" d="M1513.87,866.67c15.54-36.67,18.02-78.46,8.3-117-5.4-21.08-14.55-41.8-26.04-60.38-1.37-2.16-4.13-6.55-5.49-8.71-2.08-2.93-6.87-9.67-8.97-12.69-4.29-5.31-8.49-11.18-12.99-16.32-3.86-4.53-9.75-11.58-13.89-15.81-4.57-5.32-17.1-17.89-22.16-22.97-4.36-4.05-11.24-10.78-15.55-14.87-5.35-4.81-10.67-9.72-15.91-14.84-.75-.67-.8-1.85-.09-2.57.54-.56,1.37-.68,2.04-.36,6.62,3.14,13.16,6.48,19.67,9.93,15.89,9.04,31.59,19.48,45.67,31.27,2.57,2.12,6.15,4.99,8.51,7.24,4.81,4.51,11.76,10.8,16.07,15.68,2.57,2.74,5.15,5.48,7.67,8.28l7.17,8.76c2.15,2.45,4.93,6.37,6.84,9.06,39.69,53.78,54.29,122.99,31.07,186.73-2.59,6.84-5.57,13.98-9.24,20.34-3.2,6.88-11.25,9.97-17.97,6.06-5.95-3.45-7.77-10.91-4.7-16.81h0Z"/>
      <path class="cls-23" d="M1454.68,623.54c12.44-47.11,46.3-102.66,102.11-95.76,2.91.19,6.87,1.17,9.74,1.66,4.02.89,3.03,6.79-1.08,6.28-24.95-2.84-46.7,6.89-61.28,26.87-10.63,14.17-17.23,31.15-21.58,48.26-1.38,5.59-2.6,11.38-3.29,17.06-.51,6.92-6.53,12.11-13.45,11.6-7.86-.49-13.34-8.42-11.17-15.96h0Z"/>
      <path class="cls-23" d="M886.23,877.8c21.17-36.2,51.52-67.9,88.2-88.58,69.43-38.32,140.15-18.66,197.22,31.45,27.11,24.16,49.33,52.87,66.56,84.63.44.82.14,1.84-.68,2.28-.65.35-1.44.23-1.95-.25-3.27-3.07-6.46-6.17-9.6-9.3-3.88-3.85-7.96-7.68-11.81-11.55-21.04-20.14-42.71-40-66.54-56.44-29.86-20.96-65.76-36.4-102.8-33.7-57.21,4.09-103.77,46.65-135.4,91.65,0,0-1.58,2.36-1.58,2.36-8.93,13.7-29.1,2.12-21.62-12.55h0Z"/>
      <path class="cls-23" d="M752.39,849.23c30.29-18.38,71.63-19.08,103.99-4.89,29.28,12.59,52.31,38,62.65,68,1.42,4.14,2.5,8.43,3.46,12.71.32,1.54-1.69,2.59-2.74,1.37-5.2-5.48-9.88-10.89-14.93-16.35-2.5-2.48-6.02-6.25-8.58-8.68-31.85-31.49-67.52-46.21-112.12-49.82-10.43-.93-20.53-1.22-31.35-1.2-.35.02-.66-.27-.66-.62,0-.22.11-.41.28-.52h0Z"/>
      <path class="cls-23" d="M1570.14,721.12c13.58-5.06,26.75-9.94,39.12-17.28,20.4-12.01,37.91-27.92,49.61-48.37,15.61-26.13,18.94-57.39,17.1-87.33-2.48-42.19-19.43-81.79-38.55-119.02-6.41-12.74,10.58-23.58,19.37-12.21,5.64,7.6,10.99,15.78,15.79,23.99,22.15,38.87,34.37,83.82,33.44,128.7-.29,9.83-1.05,19.97-2.92,29.64,0,0-1.13,6.06-1.13,6.06-.69,2.88-1.6,6.06-2.38,8.93-.89,3.38-2.89,8.33-4.01,11.64-1.91,4.4-4.13,9.77-6.54,13.91,0,0-2.96,5.38-2.96,5.38-1.85,2.96-3.93,6.08-5.83,9.02-2.71,3.58-5.52,7.47-8.57,10.78-5.26,6.03-11.27,11.97-17.56,16.89-6.16,5.1-13.28,9.41-20.33,13.15-3.56,1.72-7.34,3.42-11.02,4.87-2.76,1-5.75,1.92-8.52,2.88-4.81,1.23-9.62,2.5-14.55,3.11,0,0-5.85.76-5.85.76-7.7.7-15.4.71-23.07-.16-2.84-.35-3.36-4.35-.64-5.34h0Z"/>
      <path class="cls-12" d="M1507.14,216.7s150.5-9.45,222.61,119.02"/>
      <path class="cls-23" d="M1557.99,389.76c-.79-66.98-23.4-139.09-78.55-180.77-56.46-43.02-130.71-44.73-198.96-40.96-15.39.82-30.92,2.02-46.37,3.15-5.21.44-10.45.8-15.74,1.05-1.57.07-2.9-1.14-2.98-2.71-.06-1.23.68-2.32,1.77-2.77,25.71-10.61,52.84-17.79,80.3-22.2,78.94-12.14,168.86,1.66,225.53,62.6,45.22,48.48,63.63,116.96,60.14,182.05,0,0-.2,2.31-.2,2.31-.58,6.87-6.63,11.98-13.5,11.39-6.79-.56-11.77-6.48-11.44-13.14h0Z"/>
      <path class="cls-21" d="M797.68,1062.15s-147.42,8.37-136.99-227.36,247.3-190.11,247.3-190.11"/>
      <path class="cls-23" d="M959.2,712.29c-15.64-6.09-28.59-17.4-39.41-29.97-19.05-22.07-35.25-48.28-42.47-77.03-10.21-39.38-.69-79.51,24.26-111.38,30.73-39.07,75.64-63.26,121.82-78.92.73-.24,1.51.16,1.75.89.2.61-.05,1.27-.57,1.6-19.93,12.95-39.31,25.94-57.5,40.9-40.04,32.91-73.78,75.33-65.14,129.98,1.05,6.97,2.73,14.09,4.87,20.81,4.43,13.94,10.76,27.37,18.42,39.98,7.65,13.06,17.41,24.8,26.1,37.21,4.55,6.5,9.08,13.12,12.9,20.17,1.78,3.17-1.58,7.13-5.03,5.76h0Z"/>
      <path class="cls-23" d="M870.65,351.62c-.65,18.65,1.75,37.52,7.27,55.29,7.71,25.25,23.54,47.11,43.68,63.88,2.42,2.15,5.06,4.06,7.46,6.25,5.19,4.54,5.72,12.42,1.19,17.61-4.17,4.78-11.18,5.6-16.32,2.18-5.86-3.8-11.5-7.99-16.53-12.87-15.46-14.32-26.38-33.36-31.86-53.6-6.06-22.83-5.93-47.11.47-69.78.91-3.16,1.92-6.26,3.21-9.31.16-.38.6-.56.98-.4.31.13.48.44.45.75h0Z"/>
      <path class="cls-23" d="M1138.47,444.24c6.19-51.15,40.6-99.63,92.42-112.24,33.76-8.57,69.49-2.65,101.73,9,38.74,14.06,74.3,36.05,106.82,61.02,6.48,4.9,12.73,10.08,18.95,15.27,11.9,10.63-1.88,28.61-15.25,19.81-36.54-25.26-74.05-49.85-115.36-66.45-61.66-24.63-119.48-23.17-161.22,34.39-8.97,12.37-16.58,26.2-22.27,40.45-1.09,3.21-6.08,2.37-5.81-1.24h0Z"/>
      <path class="cls-21" d="M1308.21,151.56s-226.89-160.73-361.26,39.86"/>
      <path class="cls-21" d="M1000.11,132.03s-23.87-10.4-65.17-4.46"/>
      <path class="cls-23" d="M510.78,590.58c-7.82,47.05-4.7,101.11,26.55,139.28,22.68,27.69,57.36,41.81,91.58,49.09,11.9,2.62,24.1,4.35,36.43,5.96,6.89.85,11.78,7.15,10.89,14.04-.83,6.38-6.33,11.01-12.61,10.9-26.86-.52-54.25-5.13-79.44-14.92-29.5-11.36-56.12-31.48-72.37-58.9-21.24-35.49-23.89-79.29-15.17-118.81,2.14-9.72,4.83-19.11,8.64-28.4,1.42-3.18,6.23-1.75,5.52,1.76h0Z"/>
      <path class="cls-21" d="M664.47,933.14c-85.35,54.43-185.9,50.6-241.74-1.64-46.73-43.72-50.97-110.9-51.27-116.92-2.47-49.79,21.59-86.86,30.19-101.44-65.41-34.83-112.37-100.23-112.64-170.1-.35-88.74,74.73-192.26,170.85-213.14"/>
      <path class="cls-23" d="M462.37,388.81c-8.96-22.87-10.35-48.73-4.74-72.66,4.34-18.63,14.22-36.95,28.41-50.27,4.69-4.6,9.98-8.49,15.47-11.95,5.84-3.68,13.55-1.93,17.24,3.91,3.55,5.6,2.02,12.87-3.12,16.73-6.05,4.92-11.83,9.84-17.08,15.52-10.58,11.4-18.74,25.09-24.18,40.01-6.63,18.73-9.6,38.13-9.94,58.26.02.6-.47,1.11-1.08,1.1-.43,0-.8-.27-.97-.64h0Z"/>
      <path class="cls-23" d="M420.4,605.58c-5.36-45.62,2.84-94.92,24.16-136.06,22.36-43.62,62.75-76.57,110.77-87.46,15.24-3.02,21.58,17.95,7.27,23.89-17.31,6.27-34.04,14.11-49.08,24.75-41.93,28.79-67.27,76.86-79.66,125.49-4.15,16.12-7.3,32.62-9.01,49.21-.13,2.5-3.99,2.97-4.45.18h0Z"/>
      <path class="cls-21" d="M322.25,925.74s-66.74-98.44-42.55-198.52"/>
      <path class="cls-23" d="M658.45,434.89s.04.02.04.02c-.14.34-.28.63-.44.95-1.77,3.78-3.66,7.98-5.23,11.9-10.7,25.9-12.87,54.48-12.59,82.49,0,0,.74,17.39.74,17.39.53,5.81,1.04,11.65,1.52,17.53.08.93-.62,1.75-1.55,1.82-.81.07-1.54-.45-1.76-1.21-1.67-5.65-3.3-11.33-4.92-17.05-8.46-33.74-13.15-69.34-5.98-103.96,1.74-8.41,4.53-16.82,9.49-23.92,9.84-13.34,29.45-.06,20.68,14.04h0Z"/>
      <path class="cls-23" d="M1132.42,194.42c-117.92,20.78-236.05,57.05-285.66,176.6-6.64,15.52-11.97,31.77-16.81,48.48-.98,3.44-6.3,2.9-6.3-.93.26-26.84,5.8-53.82,16.07-78.67,28.54-68.79,90.58-116.49,160.53-138.22,38.29-12.29,78.81-18.07,118.92-14.92,4.45.38,8.83.88,13.33,1.66,3.22.65,3.49,5.35-.09,6h0Z"/>
      <path class="cls-12" d="M1891,707.35c-12.81-5.69-39.97-86.83-192.68-143.14"/>
      <path class="cls-12" d="M1850.68,948.13c38.41-23.02,88.44-60.25,84.74-114.55"/>
      <path class="cls-23" d="M1620.49,426.99c-18.28-10.26-39.48-15.04-60.38-15.99-26.8-1.11-53.55,5.41-78.77,14.2-35.79,13.37-61.15,44.43-80.21,76.76-.48.79-1.5,1.04-2.29.57-.55-.33-.84-.93-.8-1.53.61-12.14,3.49-24.15,7.82-35.56,11.13-29.67,34.27-55.79,63.99-68.29,38.64-15.38,89.32-17.82,128.9-3.76,11.62,4.27,22.94,9.95,32.52,17.92,0,0,1.18,1.02,1.18,1.02,4.05,3.3,4.65,9.27,1.35,13.31-3.3,4.05-9.27,4.65-13.31,1.35h0Z"/>
      <path class="cls-21" d="M289.36,675.82s.43-16.06,18.29-36.5"/>
    </g>
  </g>
  <g id="flag">
    <g>
      <polygon class="cls-20" points="68.96 586.92 87.46 560.32 386.2 743.89 374.04 777.29 68.96 586.92"/>
      <line class="cls-20" x1="376.34" y1="737.73" x2="88.42" y2="557.01"/>
      <path class="cls-20" d="M86.33,550.29c0,21.25-17.09,38.47-38.16,38.47-4.46,0-8.74-.77-12.71-2.19-14.83-5.28-25.45-19.53-25.45-36.28,0-21.25,17.09-38.47,38.16-38.47s38.16,17.22,38.16,38.47Z"/>
      <path class="cls-20" d="M74.3,589.96c-38.28,71.97-53.5,134.75-54.71,168.15-1.88,51.97,9.22,75.19,14.51,84.71,19.1,34.43,44.78,38.91,59.65,58.53,20.22,26.69,21.93,83.41-56.46,214.38,0,0,67.19,5.18,134.13,71.76,0,0,104.29-204.77,93.51-297.72,0,0-2.26-33.85-57.86-62-56.61-28.67-15.55-95.44-15.55-95.44,8.61-17.53,17.21-35.06,25.82-52.59l-143.04-89.79Z"/>
    </g>
  </g>
  <g id="Lag_7" data-name="Lag 7">
    <circle class="cls-45" cx="211.91" cy="1158.69" r="70.37"/>
    <circle class="cls-17" cx="211.09" cy="1156.74" r="79.26"/>
    <circle class="cls-45" cx="1918.47" cy="232.81" r="70.37"/>
    <circle class="cls-17" cx="1917.66" cy="230.86" r="79.26"/>
    <circle class="cls-45" cx="509.37" cy="101.6" r="70.37"/>
    <circle class="cls-17" cx="508.56" cy="99.65" r="79.26"/>
    <circle class="cls-45" cx="1214.33" cy="905.85" r="70.37"/>
    <circle class="cls-17" cx="1213.52" cy="903.9" r="79.26"/>
  </g>
</svg>